<svg width="391" height="59" viewBox="0 0 391 59" fill="none" xmlns="http://www.w3.org/2000/svg">
<path d="M19.329 25.8243C20.4739 30.1753 20.6955 34.7834 23.0776 38.7673C23.9824 40.2544 25.1827 41.5763 26.1245 42.8063C20.5108 41.9067 15.7836 38.5837 14.3432 33.5718C13.6969 31.332 13.5122 28.9636 13.1614 26.6321C12.9029 24.9063 12.8844 23.1439 12.5151 21.4548C12.2381 20.1881 11.5364 19.0131 11.0193 17.7647C10.9639 17.8014 11.0378 17.728 11.1117 17.728C15.3958 17.5994 19.6614 17.6912 23.7424 19.3252C27.2878 20.7388 29.4668 23.3274 30.15 27.0176C30.5748 29.3125 30.6302 31.6991 30.9256 34.0307C31.1841 36.1236 31.3688 38.2349 31.8674 40.2728C32.4952 42.8797 34.1756 44.7524 36.6501 45.8723C36.8347 45.9641 37.0009 46.0926 37.1671 46.2027C37.1302 46.2945 37.0932 46.3863 37.0563 46.4781C35.8191 46.0558 34.508 45.7437 33.3262 45.2113C29.9285 43.6508 27.7125 40.8786 26.106 37.6474C24.8503 35.1323 23.8162 32.5069 22.6529 29.955C22.2282 29.0371 21.785 28.1191 21.231 27.293C20.8063 26.6688 20.16 26.1914 19.6245 25.6407C19.5321 25.659 19.4398 25.7508 19.329 25.8243Z" fill="#D0AF6C"/>
<path d="M46.5292 20.9775C46.8061 21.9505 47.0831 22.74 47.2678 23.5661C47.711 25.6223 48.0988 27.6785 47.7664 29.8265C47.2863 32.8741 45.5689 34.8752 42.7252 35.9584C40.6201 36.7662 38.4226 37.0416 35.8928 36.9682C38.4411 34.8752 40.934 33.0393 41.7096 29.8082C39.2167 31.8277 36.5945 33.6085 33.4922 34.5631C32.5874 32.4886 33.086 29.8082 34.8218 28.2293C35.8928 27.2563 37.13 26.3934 38.4042 25.6958C41.0817 24.1903 44.0547 23.1806 46.5292 20.9775Z" fill="#D0AF6C"/>
<path d="M33.5108 25.5856C31.8674 25.5856 30.5747 24.3189 30.5563 22.7033C30.5378 21.0877 31.9043 19.7108 33.5293 19.7291C35.0989 19.7475 36.4284 21.0877 36.4284 22.7033C36.4284 24.3189 35.1543 25.5856 33.5108 25.5856Z" fill="#D0AF6C"/>
<path d="M37.5918 15.8554C37.5733 17.0854 36.6685 17.9299 35.3943 17.9116C34.231 17.8748 33.3261 16.9753 33.3077 15.8003C33.2892 14.5886 34.3233 13.5972 35.5421 13.6339C36.7423 13.6706 37.6102 14.6069 37.5918 15.8554Z" fill="#D0AF6C"/>
<ellipse cx="40.8787" cy="13.1015" rx="1.10796" ry="1.10154" fill="#D0AF6C"/>
<path d="M150.578 43.8148V48.0151H155.765V49.1818H149.049V37.5894H155.765V38.7479H150.578V42.6481H154.11V43.8148H150.578Z" fill="white"/>
<path d="M142.385 48.3412C143.561 48.3412 144.697 47.9799 145.792 47.2573L146.679 48.306C145.967 48.7584 145.379 49.0609 144.915 49.2136C144.176 49.4545 143.161 49.5749 141.871 49.5749C140.581 49.5749 139.442 49.3106 138.454 48.7818C137.466 48.2531 136.713 47.5158 136.196 46.57C135.678 45.6183 135.42 44.5226 135.42 43.2831C135.42 42.0435 135.678 40.9508 136.196 40.0049C136.713 39.0591 137.466 38.3218 138.454 37.7931C139.442 37.2644 140.594 37 141.911 37C143.168 37 144.048 37.0822 144.552 37.2467C145.063 37.4112 145.446 37.561 145.701 37.6962C145.957 37.8254 146.282 38.0163 146.679 38.269L145.792 39.3176C144.697 38.595 143.561 38.2337 142.385 38.2337H142.264C141.511 38.2337 140.806 38.3747 140.147 38.6567C138.931 39.1737 138.081 40.0901 137.597 41.4061C137.369 42.0112 137.254 42.6398 137.254 43.2919C137.254 43.944 137.365 44.5726 137.587 45.1777C137.815 45.7769 138.131 46.3144 138.534 46.7903C139.428 47.8243 140.671 48.3412 142.264 48.3412H142.385Z" fill="white"/>
<path d="M133.642 37.5894V49.1818H131.933L125.672 40.498V49.1818H123.963V37.5894H125.672L131.933 46.2817V37.5894H133.642Z" fill="white"/>
<path d="M116.998 43.8148V48.0151H122.185V49.1818H115.469V37.5894H122.185V38.7479H116.998V42.6481H120.529V43.8148H116.998Z" fill="white"/>
<path d="M111.171 47.8582C109.948 48.8717 108.397 49.3784 106.517 49.3784C105.501 49.3784 104.469 49.2916 103.42 49.118V37.7037C104.604 37.4965 105.577 37.3929 106.34 37.3929C108.585 37.3929 110.38 38.1348 111.727 39.6187C112.148 40.0946 112.482 40.6602 112.728 41.3153C112.975 41.9704 113.099 42.7207 113.099 43.5662C113.099 44.4062 112.922 45.2097 112.568 45.9768C112.221 46.7439 111.755 47.371 111.171 47.8582ZM104.943 38.7116L104.935 48.0514C105.451 48.1521 106.006 48.2025 106.601 48.2025C107.852 48.2025 108.966 47.8022 109.943 47.0015C110.414 46.6207 110.793 46.1224 111.079 45.5064C111.371 44.8849 111.516 44.2326 111.516 43.5494C111.516 41.7184 110.759 40.3214 109.244 39.3583C108.397 38.8264 107.482 38.5604 106.5 38.5604C105.9 38.5604 105.381 38.6108 104.943 38.7116Z" fill="white"/>
<path d="M100.852 37.5894V49.1818H99.2717V37.5894H100.852Z" fill="white"/>
<path d="M91.0978 47.1023C91.2561 47.2142 91.4003 47.3234 91.5304 47.4298C91.6661 47.5362 91.8188 47.637 91.9885 47.7322C92.1582 47.8218 92.3335 47.9002 92.5144 47.9674C92.9103 48.1241 93.3543 48.2025 93.8463 48.2025C94.6719 48.2025 95.2403 48.0038 95.5513 47.6062C95.8171 47.2646 95.95 46.9287 95.95 46.5983C95.95 46.2623 95.9161 45.9992 95.8482 45.8088C95.7182 45.4784 95.458 45.1677 95.0678 44.8765C94.9038 44.7645 94.7087 44.6441 94.4825 44.5153L93.0913 43.835C92.571 43.555 92.1751 43.2835 91.9037 43.0203C91.6322 42.7571 91.4286 42.5136 91.2929 42.2896C90.9932 41.7912 90.8433 41.1445 90.8433 40.3494C90.8433 39.5543 91.1345 38.8628 91.717 38.2748C92.2995 37.6869 93.0573 37.3929 93.9905 37.3929C94.5843 37.3929 95.1159 37.4685 95.5853 37.6197C96.0603 37.7709 96.4364 37.9529 96.7135 38.1656L96.3912 39.3247C95.7182 38.8096 94.9547 38.552 94.1008 38.552C93.5635 38.552 93.1422 38.7284 92.8368 39.0811C92.5371 39.4339 92.3872 39.8874 92.3872 40.4418C92.3872 40.6938 92.4296 40.9233 92.5144 41.1305C92.6558 41.5001 92.9499 41.8304 93.3967 42.1216C93.572 42.2448 93.8152 42.3736 94.1262 42.508L95.458 43.1799C95.6956 43.3087 95.9048 43.4375 96.0858 43.5662C96.2724 43.6894 96.4562 43.8406 96.6372 44.0198C97.2083 44.5853 97.4939 45.3161 97.4939 46.212C97.4939 47.1023 97.1857 47.8526 96.5693 48.4629C95.9529 49.0732 95.1498 49.3784 94.1601 49.3784C93.0743 49.3784 92.1808 49.188 91.4795 48.8073C91.1006 48.6057 90.8009 48.4293 90.5803 48.2781L91.0978 47.1023Z" fill="white"/>
<path d="M84.2082 43.8148V48.0151H89.3952V49.1818H82.6791V37.5894H89.3952V38.7479H84.2082V42.6481H87.7394V43.8148H84.2082Z" fill="white"/>
<path d="M80.5062 49.1819H78.8279L74.5113 43.9275V49.1819H73V37.7025C74.0409 37.4961 74.9315 37.3929 75.6718 37.3929C76.9632 37.3929 77.9735 37.6913 78.7027 38.2882C79.4319 38.8794 79.7965 39.6352 79.7965 40.5556C79.7965 41.476 79.4681 42.2401 78.8112 42.8481C78.1544 43.4561 77.2722 43.8075 76.1645 43.9024L80.5062 49.1819ZM75.5967 38.5559C75.1514 38.5559 74.7896 38.6061 74.5113 38.7065V42.7561H74.72C77.0356 42.7561 78.1934 42.0421 78.1934 40.6142C78.1934 40.0062 77.9345 39.5097 77.4169 39.1249C76.8936 38.7456 76.2869 38.5559 75.5967 38.5559Z" fill="white"/>
<path d="M181.791 31.006C181.587 31.006 181.403 30.9346 181.239 30.7919C181.096 30.6287 181.025 30.4451 181.025 30.2412V10.3543C181.025 10.13 181.096 9.94639 181.239 9.80361C181.403 9.66084 181.587 9.58945 181.791 9.58945H189.765C192.771 9.58945 195.102 10.3033 196.758 11.7311C198.414 13.1589 199.283 15.2292 199.364 17.9419C199.385 18.5334 199.395 19.3187 199.395 20.2977C199.395 21.2768 199.385 22.0519 199.364 22.623C199.262 25.4581 198.414 27.5692 196.819 28.9562C195.245 30.3227 192.945 31.006 189.919 31.006H181.791ZM189.765 26.6003C191.115 26.6003 192.106 26.2842 192.74 25.6519C193.374 24.9992 193.711 23.9692 193.752 22.5618C193.793 21.9703 193.813 21.2054 193.813 20.2671C193.813 19.3289 193.793 18.5742 193.752 18.0031C193.711 16.6365 193.343 15.6269 192.648 14.9742C191.973 14.3215 190.961 13.9951 189.612 13.9951H186.545V26.6003H189.765Z" fill="white"/>
<path d="M153.15 31.006C152.946 31.006 152.761 30.9346 152.598 30.7919C152.454 30.6287 152.383 30.4451 152.383 30.2412V10.3543C152.383 10.13 152.454 9.94639 152.598 9.80361C152.761 9.66084 152.946 9.58945 153.15 9.58945H156.405C156.917 9.58945 157.265 9.78322 157.449 10.1708L164.941 21.9193V10.3543C164.941 10.13 165.012 9.94639 165.156 9.80361C165.319 9.66084 165.504 9.58945 165.708 9.58945H169.393C169.618 9.58945 169.802 9.66084 169.946 9.80361C170.089 9.94639 170.161 10.13 170.161 10.3543V30.2106C170.161 30.4349 170.089 30.6287 169.946 30.7919C169.802 30.9346 169.618 31.006 169.393 31.006H166.108C165.657 31.006 165.319 30.8123 165.094 30.4247L157.602 19.1045V30.2412C157.602 30.4451 157.531 30.6287 157.388 30.7919C157.244 30.9346 157.06 31.006 156.835 31.006H153.15Z" fill="white"/>
<path d="M124.191 31.006C124.026 31.006 123.872 30.9448 123.728 30.8225C123.605 30.6797 123.543 30.5267 123.543 30.3635C123.543 30.2412 123.553 30.1494 123.574 30.0882L130.823 10.4461C130.885 10.2014 131.018 9.99738 131.224 9.83421C131.43 9.67103 131.697 9.58945 132.026 9.58945H136.591C136.92 9.58945 137.188 9.67103 137.393 9.83421C137.599 9.99738 137.733 10.2014 137.794 10.4461L145.012 30.0882L145.074 30.3635C145.074 30.5267 145.002 30.6797 144.858 30.8225C144.735 30.9448 144.581 31.006 144.395 31.006H140.601C140.108 31.006 139.779 30.7919 139.614 30.3635L138.411 27.2428H130.175L129.003 30.3635C128.839 30.7919 128.499 31.006 127.985 31.006H124.191ZM137.177 22.8371L134.309 14.76L131.44 22.8371H137.177Z" fill="white"/>
<path d="M99.6205 31.006C99.4155 31.006 99.2311 30.9346 99.0671 30.7919C98.9236 30.6287 98.8518 30.4451 98.8518 30.2412V10.3543C98.8518 10.13 98.9236 9.94639 99.0671 9.80361C99.2311 9.66084 99.4155 9.58945 99.6205 9.58945H107.984C110.67 9.58945 112.761 10.2013 114.257 11.4252C115.774 12.6286 116.533 14.3419 116.533 16.5651C116.533 17.9929 116.194 19.2065 115.518 20.206C114.841 21.2054 113.909 21.9703 112.72 22.5006L116.932 30.027C116.994 30.1494 117.025 30.2616 117.025 30.3635C117.025 30.5267 116.953 30.6797 116.809 30.8225C116.686 30.9448 116.543 31.006 116.379 31.006H112.289C111.695 31.006 111.275 30.7307 111.029 30.18L107.523 23.449H104.387V30.2412C104.387 30.4655 104.305 30.6491 104.141 30.7919C103.997 30.9346 103.813 31.006 103.587 31.006H99.6205ZM107.923 19.1045C108.866 19.1045 109.583 18.8802 110.075 18.4314C110.567 17.9623 110.813 17.3198 110.813 16.5039C110.813 15.6881 110.567 15.0456 110.075 14.5765C109.604 14.0869 108.886 13.8422 107.923 13.8422H104.387V19.1045H107.923Z" fill="white"/>
<path d="M80.6174 31.0061C77.6582 31.0061 75.3463 30.2929 73.6818 28.8666C72.0172 27.4199 71.1336 25.3721 71.0308 22.7232C71.0103 22.1323 71 21.195 71 19.9114C71 18.6277 71.0103 17.6904 71.0308 17.0995C71.1336 14.5117 72.0275 12.5149 73.7126 11.1089C75.4182 9.70297 77.7198 9 80.6174 9C82.5696 9 84.265 9.31583 85.7035 9.94748C87.1625 10.5791 88.2722 11.384 89.0326 12.362C89.8135 13.3401 90.2245 14.3487 90.2656 15.3879C90.2656 15.5713 90.1936 15.7241 90.0498 15.8463C89.9265 15.9686 89.7724 16.0297 89.5874 16.0297H85.087C84.8815 16.0297 84.7171 15.9992 84.5938 15.938C84.4705 15.8769 84.3677 15.7648 84.2855 15.6018C84.0184 15.0109 83.5971 14.5015 83.0217 14.0736C82.4463 13.6254 81.6449 13.4012 80.6174 13.4012C78.1719 13.4012 76.8876 14.6849 76.7643 17.2523C76.7437 17.8228 76.7334 18.7092 76.7334 19.9114C76.7334 21.0932 76.7437 21.9795 76.7643 22.5704C76.8876 25.2601 78.2028 26.6049 80.7098 26.6049C81.9223 26.6049 82.8881 26.2992 83.6074 25.688C84.3472 25.0563 84.7171 24.0986 84.7171 22.8149V22.2342H81.8195C81.5935 22.2342 81.4085 22.1629 81.2647 22.0203C81.1208 21.8573 81.0489 21.6637 81.0489 21.4396V19.1778C81.0489 18.9537 81.1208 18.7703 81.2647 18.6277C81.4085 18.4647 81.5935 18.3832 81.8195 18.3832H89.5874C89.8135 18.3832 89.9984 18.4647 90.1423 18.6277C90.2861 18.7703 90.358 18.9537 90.358 19.1778V22.6621C90.358 24.3941 89.9573 25.8917 89.1559 27.155C88.3544 28.398 87.2139 29.3556 85.7343 30.028C84.2753 30.6801 82.5696 31.0061 80.6174 31.0061Z" fill="white"/>
<path d="M373.397 31.006C373.192 31.006 373.008 30.9346 372.844 30.7919C372.701 30.6287 372.63 30.4451 372.63 30.2412V10.3543C372.63 10.13 372.701 9.94639 372.844 9.80361C373.008 9.66084 373.192 9.58945 373.397 9.58945H381.37C384.376 9.58945 386.707 10.3033 388.363 11.7311C390.019 13.1589 390.888 15.2292 390.969 17.9419C390.99 18.5334 391 19.3187 391 20.2977C391 21.2768 390.99 22.0519 390.969 22.623C390.867 25.4581 390.019 27.5692 388.424 28.9562C386.85 30.3227 384.55 31.006 381.524 31.006H373.397ZM381.37 26.6003C382.72 26.6003 383.711 26.2842 384.345 25.6519C384.979 24.9992 385.316 23.9692 385.357 22.5618C385.398 21.9703 385.418 21.2054 385.418 20.2671C385.418 19.3289 385.398 18.5742 385.357 18.0031C385.316 16.6365 384.948 15.6269 384.253 14.9742C383.578 14.3215 382.566 13.9951 381.217 13.9951H378.15V26.6003H381.37Z" fill="white"/>
<path d="M349.305 31.006C349.099 31.006 348.913 30.9346 348.748 30.7919C348.603 30.6287 348.531 30.4451 348.531 30.2412V10.3543C348.531 10.13 348.603 9.94639 348.748 9.80361C348.913 9.66084 349.099 9.58945 349.305 9.58945H353.395C353.623 9.58945 353.809 9.66084 353.953 9.80361C354.098 9.94639 354.17 10.13 354.17 10.3543V26.3862H363.559C363.786 26.3862 363.972 26.4678 364.116 26.6309C364.261 26.7737 364.333 26.9573 364.333 27.1816V30.2412C364.333 30.4451 364.261 30.6287 364.116 30.7919C363.972 30.9346 363.786 31.006 363.559 31.006H349.305Z" fill="white"/>
<path d="M319.746 31.006C319.582 31.006 319.428 30.9448 319.284 30.8225C319.16 30.6797 319.099 30.5267 319.099 30.3635C319.099 30.2412 319.109 30.1494 319.129 30.0882L326.378 10.4461C326.44 10.2014 326.574 9.99738 326.779 9.83421C326.985 9.67103 327.252 9.58945 327.581 9.58945H332.147C332.476 9.58945 332.743 9.67103 332.949 9.83421C333.154 9.99738 333.288 10.2014 333.35 10.4461L340.568 30.0882L340.629 30.3635C340.629 30.5267 340.558 30.6797 340.414 30.8225C340.29 30.9448 340.136 31.006 339.951 31.006H336.157C335.663 31.006 335.334 30.7919 335.17 30.3635L333.967 27.2428H325.731L324.558 30.3635C324.394 30.7919 324.055 31.006 323.541 31.006H319.746ZM332.733 22.8371L329.864 14.76L326.995 22.8371H332.733Z" fill="white"/>
<path d="M296.559 31.006C296.354 31.006 296.169 30.9346 296.005 30.7919C295.862 30.6287 295.79 30.4451 295.79 30.2412V10.3543C295.79 10.13 295.862 9.94639 296.005 9.80361C296.169 9.66084 296.354 9.58945 296.559 9.58945H304.923C307.608 9.58945 309.699 10.2013 311.196 11.4252C312.713 12.6286 313.471 14.3419 313.471 16.5651C313.471 17.9929 313.133 19.2065 312.456 20.206C311.78 21.2054 310.847 21.9703 309.658 22.5006L313.871 30.027C313.932 30.1494 313.963 30.2616 313.963 30.3635C313.963 30.5267 313.891 30.6797 313.748 30.8225C313.625 30.9448 313.481 31.006 313.317 31.006H309.228C308.633 31.006 308.213 30.7307 307.967 30.18L304.462 23.449H301.325V30.2412C301.325 30.4655 301.243 30.6491 301.079 30.7919C300.936 30.9346 300.751 31.006 300.526 31.006H296.559ZM304.861 19.1045C305.804 19.1045 306.522 18.8802 307.014 18.4314C307.506 17.9623 307.752 17.3198 307.752 16.5039C307.752 15.6881 307.506 15.0456 307.014 14.5765C306.542 14.0869 305.825 13.8422 304.861 13.8422H301.325V19.1045H304.861Z" fill="white"/>
<path d="M271.475 31.006C271.269 31.006 271.084 30.9346 270.92 30.7919C270.776 30.6287 270.704 30.4451 270.704 30.2412V10.3543C270.704 10.13 270.776 9.94639 270.92 9.80361C271.084 9.66084 271.269 9.58945 271.475 9.58945H285.883C286.109 9.58945 286.294 9.66084 286.438 9.80361C286.582 9.94639 286.654 10.13 286.654 10.3543V13.2303C286.654 13.4342 286.582 13.6178 286.438 13.781C286.294 13.9238 286.109 13.9951 285.883 13.9951H276.041V18.1255H285.204C285.431 18.1255 285.616 18.2071 285.76 18.3702C285.904 18.513 285.976 18.6966 285.976 18.921V21.5827C285.976 21.7867 285.904 21.9703 285.76 22.1335C285.616 22.2762 285.431 22.3476 285.204 22.3476H276.041V26.6003H286.13C286.356 26.6003 286.541 26.6717 286.685 26.8145C286.829 26.9573 286.901 27.1409 286.901 27.3652V30.2412C286.901 30.4451 286.829 30.6287 286.685 30.7919C286.541 30.9346 286.356 31.006 286.13 31.006H271.475Z" fill="white"/>
<path d="M240.459 31.006C240.255 31.006 240.07 30.9346 239.906 30.7919C239.763 30.6287 239.691 30.4451 239.691 30.2412V10.3543C239.691 10.13 239.763 9.94639 239.906 9.80361C240.07 9.66084 240.255 9.58945 240.459 9.58945H243.777C244.269 9.58945 244.627 9.81381 244.852 10.2625L250.259 19.9L255.666 10.2625C255.891 9.81381 256.25 9.58945 256.741 9.58945H260.029C260.254 9.58945 260.438 9.66084 260.582 9.80361C260.745 9.94639 260.827 10.13 260.827 10.3543V30.2412C260.827 30.4655 260.745 30.6491 260.582 30.7919C260.438 30.9346 260.254 31.006 260.029 31.006H256.373C256.147 31.006 255.953 30.9346 255.789 30.7919C255.646 30.6491 255.574 30.4655 255.574 30.2412V18.768L252.133 25.1624C251.867 25.6315 251.509 25.8661 251.058 25.8661H249.461C249.194 25.8661 248.979 25.8049 248.815 25.6825C248.652 25.5601 248.508 25.3867 248.385 25.1624L244.914 18.768V30.2412C244.914 30.4451 244.842 30.6287 244.699 30.7919C244.556 30.9346 244.371 31.006 244.146 31.006H240.459Z" fill="white"/>
<path d="M216.749 31.006C216.546 31.006 216.363 30.9346 216.201 30.7919C216.059 30.6287 215.988 30.4451 215.988 30.2412V10.3543C215.988 10.13 216.059 9.94639 216.201 9.80361C216.363 9.66084 216.546 9.58945 216.749 9.58945H230.982C231.205 9.58945 231.388 9.66084 231.53 9.80361C231.673 9.94639 231.744 10.13 231.744 10.3543V13.2303C231.744 13.4342 231.673 13.6178 231.53 13.781C231.388 13.9238 231.205 13.9951 230.982 13.9951H221.26V18.1255H230.311C230.535 18.1255 230.718 18.2071 230.86 18.3702C231.002 18.513 231.073 18.6966 231.073 18.921V21.5827C231.073 21.7867 231.002 21.9703 230.86 22.1335C230.718 22.2762 230.535 22.3476 230.311 22.3476H221.26V26.6003H231.226C231.449 26.6003 231.632 26.6717 231.774 26.8145C231.916 26.9573 231.988 27.1409 231.988 27.3652V30.2412C231.988 30.4451 231.916 30.6287 231.774 30.7919C231.632 30.9346 231.449 31.006 231.226 31.006H216.749Z" fill="white"/>
</svg>
