<svg width="259" height="254" viewBox="0 0 259 254" fill="none" xmlns="http://www.w3.org/2000/svg">
<rect width="259" height="254" fill="#D0AF6C"/>
<path d="M67.3178 107.282C74.2393 133.684 75.579 161.646 89.9802 185.821C95.4505 194.845 102.707 202.866 108.401 210.33C74.4626 204.871 45.8833 184.707 37.1755 154.294C33.2682 140.703 32.1518 126.332 30.0307 112.183C28.4677 101.711 28.3561 91.0167 26.1234 80.7675C24.4488 73.0807 20.2065 65.9509 17.0807 58.3754C16.7458 58.5982 17.1923 58.1526 17.6389 58.1526C43.5389 57.3728 69.3272 57.9298 93.9992 67.8447C115.434 76.4228 128.607 92.1307 132.738 114.523C135.305 128.448 135.64 142.931 137.426 157.079C138.989 169.779 140.106 182.59 143.12 194.956C146.916 210.775 157.075 222.139 172.034 228.934C173.151 229.491 174.155 230.271 175.16 230.939C174.937 231.496 174.713 232.054 174.49 232.611C167.01 230.048 159.084 228.154 151.939 224.924C131.398 215.454 118.001 198.632 108.289 179.025C100.697 163.763 94.4458 147.832 87.4126 132.347C84.8449 126.777 82.1656 121.207 78.8165 116.194C76.2488 112.406 72.3415 109.51 69.104 106.168C68.5458 106.279 67.9876 106.836 67.3178 107.282Z" fill="#297B3D"/>
<path d="M231.76 77.871C233.435 83.7754 235.11 88.5658 236.226 93.5789C238.905 106.056 241.25 118.533 239.24 131.568C236.338 150.061 225.955 162.204 208.763 168.776C196.036 173.678 182.751 175.349 167.457 174.904C182.863 162.204 197.934 151.063 202.623 131.456C187.552 143.711 171.699 154.517 152.944 160.31C147.474 147.721 150.488 131.456 160.982 121.875C167.457 115.971 174.937 110.735 182.64 106.502C198.827 97.3667 216.801 91.2395 231.76 77.871Z" fill="#297B3D"/>
<path d="M153.055 105.833C143.12 105.833 135.305 98.1465 135.193 88.343C135.082 78.5395 143.343 70.1842 153.167 70.2956C162.656 70.407 170.694 78.5395 170.694 88.343C170.694 98.1465 162.991 105.833 153.055 105.833Z" fill="#297B3D"/>
<path d="M177.728 46.7895C177.616 54.2535 172.146 59.3781 164.443 59.2667C157.41 59.0438 151.939 53.5851 151.828 46.4553C151.716 39.1026 157.968 33.0868 165.336 33.3096C172.592 33.5325 177.839 39.214 177.728 46.7895Z" fill="#297B3D"/>
<ellipse cx="197.599" cy="30.0789" rx="6.69827" ry="6.6842" fill="#297B3D"/>
</svg>
